<svg width="513" height="442" viewBox="0 0 513 442" fill="none" xmlns="http://www.w3.org/2000/svg">
<g clip-path="url(#clip0_96_67)">
<path d="M234.638 441.65C233.772 441.65 232.473 441.65 231.608 441.216C226.846 439.915 223.815 435.579 223.815 430.809V312.862H10.8228C4.76203 312.862 0 308.092 0 302.022C0 295.951 4.76203 291.181 10.8228 291.181H234.638C240.699 291.181 245.461 295.951 245.461 302.022V393.951L351.524 231.774H122.081C118.185 231.774 114.722 229.606 112.557 226.57C110.825 223.101 110.392 219.199 112.557 215.73L227.278 6.28716C229.443 1.95087 234.638 -0.21727 239.4 1.08362C244.162 2.3845 247.625 6.72078 247.625 11.4907V122.5H502.177C508.238 122.5 513 127.269 513 133.34C513 139.411 508.238 144.181 502.177 144.181H236.803C230.742 144.181 225.98 139.411 225.98 133.34V53.9863L140.263 210.092H371.871C375.767 210.092 379.663 212.261 381.395 215.73C383.127 219.199 383.127 223.535 380.962 227.004L244.162 436.446C241.997 439.482 238.534 441.65 234.638 441.65Z" fill="white" fill-opacity="0.5"/>
</g>
<defs>
<clipPath id="clip0_96_67">
<rect width="513" height="441" fill="white" transform="translate(0 0.649994)"/>
</clipPath>
</defs>
</svg>
