<svg width="21" height="21" viewBox="0 0 21 21" fill="none" xmlns="http://www.w3.org/2000/svg">
<path d="M13.6246 7.42354L9.33461 11.7235L7.68461 10.0735C7.59496 9.96886 7.48464 9.88384 7.36058 9.82382C7.23651 9.7638 7.10138 9.73007 6.96366 9.72475C6.82594 9.71943 6.68861 9.74263 6.56028 9.79291C6.43196 9.84318 6.31541 9.91944 6.21796 10.0169C6.1205 10.1143 6.04424 10.2309 5.99397 10.3592C5.94369 10.4875 5.92049 10.6249 5.92581 10.7626C5.93113 10.9003 5.96486 11.0355 6.02488 11.1595C6.0849 11.2836 6.16992 11.3939 6.27461 11.4835L8.62461 13.8435C8.71805 13.9362 8.82886 14.0096 8.9507 14.0593C9.07254 14.1091 9.203 14.1343 9.33461 14.1335C9.59695 14.1324 9.84835 14.0283 10.0346 13.8435L15.0346 8.84354C15.1283 8.75058 15.2027 8.63998 15.2535 8.51812C15.3043 8.39626 15.3304 8.26556 15.3304 8.13354C15.3304 8.00153 15.3043 7.87083 15.2535 7.74897C15.2027 7.62711 15.1283 7.51651 15.0346 7.42354C14.8472 7.23729 14.5938 7.13275 14.3296 7.13275C14.0654 7.13275 13.812 7.23729 13.6246 7.42354ZM10.9046 0.633545C8.92679 0.633545 6.9934 1.22003 5.3489 2.31885C3.70441 3.41766 2.42269 4.97945 1.66581 6.80671C0.908935 8.63397 0.710902 10.6446 1.09675 12.5844C1.48261 14.5243 2.43501 16.3061 3.83354 17.7046C5.23206 19.1031 7.01389 20.0555 8.9537 20.4414C10.8935 20.8273 12.9042 20.6292 14.7314 19.8723C16.5587 19.1155 18.1205 17.8337 19.2193 16.1892C20.3181 14.5448 20.9046 12.6114 20.9046 10.6335C20.9046 9.32033 20.6459 8.01997 20.1434 6.80671C19.6409 5.59345 18.9043 4.49106 17.9757 3.56248C17.0471 2.63389 15.9447 1.8973 14.7314 1.39475C13.5182 0.892203 12.2178 0.633545 10.9046 0.633545ZM10.9046 18.6335C9.32236 18.6335 7.77564 18.1644 6.46004 17.2853C5.14445 16.4062 4.11907 15.1568 3.51357 13.695C2.90807 12.2332 2.74964 10.6247 3.05832 9.07282C3.36701 7.52097 4.12893 6.09551 5.24775 4.97669C6.36657 3.85787 7.79204 3.09594 9.34388 2.78726C10.8957 2.47858 12.5043 2.63701 13.9661 3.24251C15.4279 3.84801 16.6773 4.87339 17.5564 6.18898C18.4354 7.50458 18.9046 9.05129 18.9046 10.6335C18.9046 12.7553 18.0618 14.7901 16.5615 16.2904C15.0612 17.7907 13.0263 18.6335 10.9046 18.6335Z" fill="#027D51"/>
</svg>
