<svg width="73" height="15" viewBox="0 0 73 15" fill="none" xmlns="http://www.w3.org/2000/svg">
<g clip-path="url(#clip0_48_551)">
<path fill-rule="evenodd" clip-rule="evenodd" d="M47.6927 8.17666C47.7354 8.45666 47.7567 8.67204 47.8207 8.88743C48.2899 10.8905 49.8468 12.2259 51.8728 12.3982C53.6643 12.549 55.0719 11.8597 56.1169 10.3736C56.6288 9.66281 57.4605 9.53358 58.1216 10.1151C58.5055 10.4382 58.5482 10.869 58.2496 11.2782C58.079 11.4936 57.9297 11.709 57.7591 11.9459C57.0766 12.8936 56.1809 13.5397 55.0719 13.9274C53.2804 14.552 51.4889 14.6382 49.7188 13.9705C47.3302 13.0874 45.9226 11.3213 45.5174 8.80128C45.2828 7.25051 45.4321 5.69974 46.1359 4.29974C47.1596 2.29666 48.7591 1.06897 50.9771 0.702815C52.4487 0.465892 53.8989 0.616661 55.2638 1.28435C57.2046 2.21051 58.3776 3.78282 58.8254 5.87205C58.9534 6.45358 58.9961 7.03512 59.0387 7.61666C59.0814 7.98281 58.9107 8.13358 58.5482 8.15512C58.3776 8.15512 58.2283 8.15512 58.0577 8.15512C54.752 8.15512 51.4463 8.15512 48.1619 8.15512C48.0126 8.17666 47.906 8.17666 47.6927 8.17666ZM56.7141 5.97974C56.4368 4.10589 54.1975 2.46897 52.1288 2.5982C49.9747 2.72743 47.842 4.38589 47.7567 5.97974C50.7212 5.97974 53.7283 5.97974 56.7141 5.97974Z" fill="#9D9E9E"/>
<path fill-rule="evenodd" clip-rule="evenodd" d="M30.7591 8.1119C30.7804 8.30575 30.8017 8.43498 30.823 8.58575C31.2283 10.8042 33.0197 12.3334 35.2377 12.3765C36.9226 12.3981 38.2235 11.7088 39.2046 10.3304C39.7164 9.59806 40.6335 9.5119 41.2733 10.1581C41.5719 10.4811 41.6358 10.8688 41.3373 11.2565C41.2093 11.4504 41.0813 11.6227 40.932 11.7734C40.2069 12.8504 39.2046 13.5396 37.9889 13.9488C36.1975 14.5519 34.406 14.595 32.6785 13.9057C30.2046 12.9365 28.8183 11.0196 28.5197 8.34882C28.3704 7.05652 28.4984 5.80729 29.0316 4.62267C30.0766 2.38267 31.7614 1.00421 34.214 0.681131C35.515 0.508823 36.8159 0.616516 38.0103 1.1119C40.1856 2.01652 41.4439 3.71805 41.9344 6.02267C42.0197 6.53959 42.0837 7.09959 42.105 7.61652C42.1264 8.04729 42.0411 8.13344 41.5932 8.13344C40.8254 8.13344 40.015 8.13344 39.2259 8.13344C36.5813 8.13344 33.9368 8.13344 31.3349 8.13344C31.143 8.1119 30.9723 8.1119 30.7591 8.1119ZM39.823 5.91498C39.5458 4.06267 37.3704 2.49036 35.2377 2.53344C33.169 2.57652 31.015 4.25652 30.8444 5.91498C33.8302 5.91498 36.7946 5.91498 39.823 5.91498Z" fill="#9D9E9E"/>
<path fill-rule="evenodd" clip-rule="evenodd" d="M67.8681 9.1031C68.0387 9.25387 68.124 9.34002 68.2306 9.42618C69.3823 10.4169 70.534 11.4077 71.6643 12.3985C71.7283 12.4631 71.8349 12.5493 71.8989 12.6139C72.3254 13.0446 72.3681 13.6693 71.9629 14.1C71.579 14.5308 70.9818 14.5954 70.534 14.2293C69.7235 13.5616 68.9558 12.8723 68.1667 12.2046C67.0363 11.2354 65.9273 10.2662 64.797 9.29695C64.7117 9.21079 64.5837 9.12464 64.4131 8.99541C64.4131 9.23233 64.3918 9.3831 64.3918 9.53387C64.3918 12.2693 64.3918 10.2231 64.3918 12.9585C64.3918 13.0877 64.3918 13.2169 64.3918 13.3462C64.3491 13.9493 63.9013 14.38 63.3041 14.3369C62.7283 14.3154 62.3444 13.8846 62.3231 13.2816C62.3231 13.1523 62.3231 13.0231 62.3231 12.8939C62.3231 7.48772 62.3231 6.8631 62.3231 1.45695C62.3231 1.28464 62.3231 1.13387 62.3231 0.961563C62.3231 0.573871 62.3657 0.509255 62.7283 0.509255C63.2188 0.487717 63.7093 0.487717 64.1998 0.487717C65.3728 0.487717 66.5885 0.530794 67.7615 0.466178C69.7449 0.380024 71.9629 1.99541 72.1762 4.3431C72.3681 6.45387 70.9392 8.45695 68.8065 8.88772C68.5292 8.95233 68.2307 9.03849 67.8681 9.1031ZM64.2638 7.44464C64.3918 7.46618 64.4771 7.46618 64.5411 7.46618C65.5221 7.46618 66.5245 7.46618 67.5055 7.46618C67.7828 7.46618 68.0814 7.44464 68.3586 7.33695C69.2757 7.05695 70.0008 6.49695 70.2354 5.50618C70.6406 3.80464 69.3823 2.25387 67.6548 2.25387C66.6311 2.25387 65.6288 2.25387 64.5837 2.25387C64.4558 2.25387 64.3491 2.27541 64.2212 2.27541C64.2638 3.99849 64.2638 5.70002 64.2638 7.44464Z" fill="#9D9E9E"/>
<path fill-rule="evenodd" clip-rule="evenodd" d="M23.0814 8.13362C21.1193 8.13362 19.2212 8.13362 17.2804 8.13362C17.2804 8.30593 17.2591 8.4567 17.2591 8.60747C17.2591 10.1152 17.2591 11.6013 17.2591 13.109C17.2591 13.3029 17.2591 13.4967 17.2164 13.6475C17.0671 14.0998 16.5979 14.3798 16.1501 14.3582C15.6596 14.3152 15.2543 13.9275 15.1904 13.4321C15.169 13.3029 15.1904 13.1952 15.1904 13.0659C15.1904 7.70286 15.169 7.0567 15.169 1.71516C15.169 1.49978 15.1904 1.2844 15.2543 1.09055C15.425 0.638242 15.8942 0.379781 16.3847 0.444396C16.8325 0.509011 17.2164 0.896703 17.2591 1.37055C17.2804 1.52132 17.2591 1.65055 17.2591 1.80132C17.2591 4.55824 17.2804 2.59824 17.2804 5.35516C17.2804 5.52747 17.3017 5.67824 17.3017 5.82901C17.6643 5.91516 22.6975 5.91516 23.0814 5.82901C23.0814 5.69978 23.1027 5.57055 23.1027 5.41978C23.1027 4.21363 23.1027 2.98593 23.1027 1.77978C23.1027 1.65055 23.1027 1.54286 23.1027 1.41363C23.1453 0.875165 23.5505 0.465934 24.0837 0.444396C24.6169 0.422857 25.1074 0.832088 25.1714 1.37055C25.1927 1.49978 25.1714 1.60747 25.1714 1.7367C25.1714 5.50593 25.1714 9.25362 25.1714 13.0229C25.1714 13.1521 25.1714 13.2598 25.1714 13.389C25.1074 13.9275 24.6382 14.3582 24.1051 14.3367C23.5719 14.3152 23.1453 13.8844 23.0814 13.3459C23.0814 13.2167 23.0814 13.109 23.0814 12.9798C23.0814 11.5367 23.0814 10.0505 23.0814 8.60747C23.0814 8.47824 23.0814 8.32747 23.0814 8.13362Z" fill="#9D9E9E"/>
<path fill-rule="evenodd" clip-rule="evenodd" d="M6.10504 14.4443C4.71879 14.4228 3.41784 14.1213 2.22353 13.389C1.71168 13.0874 1.24249 12.6997 0.858599 12.2474C0.666656 12.0105 0.432059 11.7736 0.346751 11.472C0.218789 11.0843 0.197462 10.6536 0.560021 10.309C0.965234 9.92126 1.51974 9.77049 2.07424 10.1366C2.60741 10.5243 2.86334 11.0197 3.31121 11.472C3.95102 12.1182 4.78277 12.4628 5.6785 12.5705C6.51026 12.6566 7.32068 12.6351 8.13111 12.3551C8.45102 12.2259 8.79225 12.0751 9.0695 11.8597C9.58135 11.2782 9.73064 10.4597 9.11215 9.89972C8.81357 9.64126 8.42969 9.44741 8.0458 9.2751C7.10741 8.86587 6.12637 8.58587 5.14533 8.32741C4.3349 8.13357 3.56713 7.8751 2.7567 7.63818C2.45813 7.55203 2.15955 7.37972 1.8823 7.22895C1.13585 6.81972 0.70931 6.17357 0.581348 5.3551C0.346751 3.65357 0.965234 2.12434 2.4368 1.37049C4.74012 0.228951 7.12874 0.336644 9.43206 1.65049C9.8586 1.88741 10.2638 2.25357 10.6264 2.57664C10.9036 2.81357 11.1169 3.15818 11.2235 3.52434C11.3302 3.97664 11.1169 4.45049 10.5624 4.57972C10.0932 4.68741 9.66666 4.53664 9.32542 4.17049C9.26144 4.10587 9.19746 4.01972 9.15481 3.95511C8.62163 3.13664 7.83253 2.68434 6.89414 2.51203C5.95576 2.33972 5.01737 2.36126 4.12163 2.72741C3.80173 2.85664 3.46049 3.02895 3.20457 3.26587C2.82068 3.7828 2.6714 4.47203 3.18324 5.11818C3.58846 5.50587 4.05765 5.72126 4.5695 5.82895C5.69983 6.10895 6.85149 6.41049 7.98182 6.69049C8.70694 6.88434 9.41073 7.12126 10.0719 7.50895C10.9249 7.96126 11.5434 8.62895 11.7567 9.59818C12.0126 10.7828 11.7567 11.9028 10.8396 12.7643C9.79462 13.712 8.60031 14.2289 7.21405 14.3797C6.83016 14.4228 6.44628 14.4228 6.10504 14.4443Z" fill="#9D9E9E"/>
</g>
<defs>
<clipPath id="clip0_48_551">
<rect width="72" height="14" fill="white" transform="translate(0.240112 0.46582)"/>
</clipPath>
</defs>
</svg>
