<svg width="57" height="60" viewBox="0 0 57 60" fill="none" xmlns="http://www.w3.org/2000/svg">
<g clip-path="url(#clip0_48_447)">
<path d="M25.4957 57.0272C25.3087 57.0272 25.1099 56.9681 24.958 56.838C23.5902 55.75 22.8187 54.1299 22.8187 52.3796C22.8187 50.4638 21.5913 49.2575 20.4457 48.7845C19.3 48.2996 17.5933 48.276 16.249 49.6241C15.1852 50.7003 13.7824 51.2798 12.2861 51.2798C10.7898 51.2798 9.387 50.6885 8.32321 49.6241C7.27112 48.5598 6.68663 47.1288 6.68663 45.6151C6.68663 44.1014 7.27112 42.6823 8.32321 41.6061C9.66755 40.2461 9.63249 38.5195 9.1532 37.3606C8.67391 36.2016 7.49323 34.9599 5.59947 34.9599C2.51333 34.9717 0 32.4291 0 29.307C0 26.185 2.51333 23.6424 5.59947 23.6424C7.49323 23.6424 8.6856 22.4007 9.1532 21.2417C9.63249 20.0828 9.65586 18.3562 8.32321 16.9962C7.25943 15.92 6.68663 14.5009 6.68663 12.9871C6.68663 11.4734 7.27112 10.0543 8.32321 8.97812C9.37531 7.91378 10.7898 7.32248 12.2861 7.32248C13.7824 7.32248 15.1852 7.91378 16.249 8.97812C17.5933 10.3381 19.3 10.3026 20.4457 9.81777C21.5913 9.3329 22.8187 8.13847 22.8187 6.22266C22.807 3.11242 25.3203 0.569824 28.4065 0.569824C31.4926 0.569824 34.0059 3.11242 34.0059 6.23449C34.0059 8.1503 35.2334 9.35655 36.379 9.8296C37.5246 10.3145 39.2313 10.3381 40.5757 8.98995C41.6395 7.91378 43.0422 7.33431 44.5386 7.33431C46.0349 7.33431 47.4376 7.92561 48.5014 8.98995C49.5535 10.0543 50.138 11.4852 50.138 12.999C50.138 14.5127 49.5535 15.9318 48.5014 17.008C47.6013 17.9186 47.2155 19.113 47.4143 20.3547C47.4961 20.8396 47.1688 21.289 46.6895 21.3718C46.2102 21.4546 45.766 21.1234 45.6842 20.6386C45.3919 18.841 45.9647 17.0671 47.2623 15.7544C47.9871 15.0212 48.3962 14.0397 48.3962 12.999C48.3962 11.9583 47.9988 10.9767 47.274 10.2435C46.5492 9.51029 45.579 9.10821 44.5502 9.10821C43.5215 9.10821 42.5513 9.51029 41.8265 10.2435C40.1899 11.8991 37.8519 12.3722 35.7244 11.4734C33.5968 10.5746 32.2641 8.57604 32.2641 6.23449C32.2641 4.08215 30.534 2.34373 28.4182 2.34373C26.3023 2.34373 24.5722 4.09398 24.5722 6.23449C24.5722 8.57604 23.2512 10.5746 21.112 11.4734C18.9844 12.3722 16.6464 11.8991 15.0098 10.2435C14.2851 9.51029 13.3148 9.09638 12.2861 9.09638C11.2574 9.09638 10.2871 9.49847 9.56235 10.2317C8.83757 10.9649 8.44011 11.9465 8.44011 12.9871C8.44011 14.0278 8.83757 15.0094 9.56235 15.7426C11.1989 17.3982 11.6665 19.7634 10.7781 21.9158C9.88966 24.0681 7.91407 25.4163 5.59947 25.4163C3.48359 25.4163 1.75349 27.1665 1.75349 29.307C1.75349 31.4476 3.48359 33.1978 5.59947 33.1978C7.91407 33.1978 9.88966 34.5341 10.7781 36.6983C11.6665 38.8506 11.1989 41.2158 9.56235 42.8715C8.83757 43.6047 8.42842 44.5863 8.42842 45.6269C8.42842 46.6676 8.82588 47.6492 9.55066 48.3824C10.2754 49.1156 11.2457 49.5177 12.2744 49.5177C13.3031 49.5177 14.2734 49.1156 14.9982 48.3824C16.6347 46.7268 18.9727 46.2537 21.1003 47.1525C23.2278 48.0513 24.5605 50.0499 24.5605 52.3914C24.5605 53.5977 25.0982 54.7093 26.0334 55.4544C26.4192 55.7618 26.4776 56.3177 26.1854 56.6961C26.01 56.909 25.7529 57.0272 25.4957 57.0272Z" fill="#474747"/>
<path d="M26.4776 40.8966C26.4309 40.8966 26.3724 40.8966 26.3257 40.8848C20.7262 39.8678 16.6698 34.9481 16.6698 29.1889C16.6698 22.6372 21.9419 17.3037 28.4182 17.3037C31.0133 17.3037 33.4799 18.1434 35.5373 19.7399C37.5363 21.2773 39.0092 23.4651 39.6989 25.8894C39.8275 26.3624 39.5586 26.8473 39.1027 26.9892C38.6351 27.1193 38.1559 26.8591 38.0156 26.3861C36.7881 22.0814 32.8369 19.0776 28.4065 19.0776C22.9005 19.0776 18.4116 23.6188 18.4116 29.1889C18.4116 34.0967 21.8718 38.2712 26.6296 39.1464C27.1089 39.2292 27.4245 39.6904 27.3427 40.1752C27.2609 40.601 26.8868 40.8966 26.4776 40.8966Z" fill="#474747"/>
<path d="M29.6222 59.5697C29.4118 59.5697 29.2014 59.4869 29.0261 59.3332C28.7104 59.0375 28.652 58.5645 28.8858 58.1979L40.564 40.1041L31.9018 39.2408C31.5511 39.2053 31.2588 38.957 31.1536 38.614C31.0484 38.271 31.1653 37.9044 31.4342 37.6679L55.5738 17.4218C55.9012 17.1498 56.3687 17.1498 56.6844 17.4218C57.0117 17.6938 57.1052 18.155 56.9065 18.5334L48.1858 34.9834L56.322 36.9702C56.6493 37.053 56.9065 37.3131 56.9766 37.6443C57.0468 37.9754 56.9182 38.3183 56.661 38.5312L30.16 59.3805C29.9963 59.5106 29.8093 59.5697 29.6222 59.5697ZM34.1696 37.6797L42.1772 38.4839C42.4811 38.5194 42.75 38.7086 42.8786 38.9806C43.0072 39.2644 42.9955 39.5837 42.8201 39.8439L33.2227 54.721L54.136 38.2474L46.6661 36.4262C46.3973 36.3671 46.1868 36.1778 46.0699 35.9295C45.9647 35.6811 45.9647 35.3855 46.0933 35.149L53.2242 21.6791L34.1696 37.6797Z" fill="#474747"/>
</g>
<defs>
<clipPath id="clip0_48_447">
<rect width="57" height="59" fill="white" transform="translate(0 0.569824)"/>
</clipPath>
</defs>
</svg>
