<svg width="64" height="62" viewBox="0 0 64 62" fill="none" xmlns="http://www.w3.org/2000/svg">
<g clip-path="url(#clip0_48_453)">
<path d="M54.0245 32.1153C53.5853 32.1153 53.1963 31.8076 53.1084 31.3461C51.866 25.3332 48.1512 20.1153 42.9054 17.0255C42.4536 16.7563 42.303 16.1666 42.554 15.7178C42.8176 15.2563 43.3949 15.1025 43.8341 15.3589C49.5317 18.7178 53.5853 24.3973 54.9407 30.9486C55.0536 31.4743 54.7273 31.9743 54.2128 32.0896C54.1626 32.1153 54.0873 32.1153 54.0245 32.1153Z" fill="#474747"/>
<path d="M10.0877 36.8333C9.57318 36.8333 9.14648 36.3974 9.14648 35.8717C9.14648 29.423 11.6439 23.3974 16.1618 18.9102C16.5383 18.5384 17.1282 18.5512 17.4921 18.9358C17.856 19.3204 17.8435 19.923 17.467 20.2948C13.313 24.423 11.0164 29.9615 11.0164 35.8717C11.029 36.3974 10.6023 36.8333 10.0877 36.8333Z" fill="#474747"/>
<path d="M32.3008 59.5255C29.7407 59.5255 27.2307 59.1024 24.8337 58.2691C24.3442 58.1024 24.0807 57.5512 24.2438 57.0512C24.407 56.5512 24.9466 56.2819 25.4361 56.4486C27.6323 57.2178 29.9415 57.6024 32.2883 57.6024C36.116 57.6024 39.8558 56.5512 43.1313 54.5768C43.5831 54.3076 44.1604 54.4614 44.4239 54.9101C44.6875 55.3717 44.5369 55.9614 44.0976 56.2307C40.5335 58.3845 36.4548 59.5255 32.3008 59.5255Z" fill="#474747"/>
<path d="M12.8737 59.3972C6.1596 59.3972 0.700439 53.8203 0.700439 46.9613C0.700439 40.1023 6.1596 34.5254 12.8737 34.5254C19.5879 34.5254 25.0471 40.1023 25.0471 46.9613C25.0471 53.8203 19.5879 59.3972 12.8737 59.3972ZM12.8737 36.4485C7.20124 36.4485 2.58291 41.1664 2.58291 46.9613C2.58291 52.7562 7.20124 57.4741 12.8737 57.4741C18.5463 57.4741 23.1646 52.7562 23.1646 46.9613C23.1646 41.1664 18.5463 36.4485 12.8737 36.4485Z" fill="#474747"/>
<path d="M51.5271 59.3972C44.813 59.3972 39.3538 53.8203 39.3538 46.9613C39.3538 40.1023 44.813 34.5254 51.5271 34.5254C58.2413 34.5254 63.7004 40.1023 63.7004 46.9613C63.7004 53.8203 58.2413 59.3972 51.5271 59.3972ZM51.5271 36.4485C45.8546 36.4485 41.2363 41.1664 41.2363 46.9613C41.2363 52.7562 45.8546 57.4741 51.5271 57.4741C57.1996 57.4741 61.818 52.7562 61.818 46.9613C61.818 41.1664 57.1996 36.4485 51.5271 36.4485Z" fill="#474747"/>
<path d="M32.326 25.6794C25.6118 25.6794 20.1526 20.1025 20.1526 13.2435C20.1526 6.38454 25.6118 0.807617 32.326 0.807617C39.0401 0.807617 44.4993 6.38454 44.4993 13.2435C44.4993 20.1025 39.0401 25.6794 32.326 25.6794ZM32.326 2.73069C26.6534 2.73069 22.0351 7.44864 22.0351 13.2435C22.0351 19.0384 26.6534 23.7563 32.326 23.7563C37.9985 23.7563 42.6168 19.0384 42.6168 13.2435C42.6168 7.44864 37.9985 2.73069 32.326 2.73069Z" fill="#474747"/>
<path d="M17.2034 24.5254C16.6889 24.5254 16.2622 24.0895 16.2622 23.5639V20.2947H13.062C12.5474 20.2947 12.1207 19.8588 12.1207 19.3331C12.1207 18.8075 12.5474 18.3716 13.062 18.3716H17.2034C17.7179 18.3716 18.1446 18.8075 18.1446 19.3331V23.5639C18.1446 24.0895 17.7179 24.5254 17.2034 24.5254Z" fill="#474747"/>
<path d="M54.2128 32.6024C54.0622 32.6024 53.899 32.564 53.761 32.4742L50.1466 30.4101C49.6949 30.1537 49.5317 29.564 49.7827 29.1024C50.0337 28.6409 50.611 28.4742 51.0628 28.7307L53.8614 30.3204L55.4176 27.4614C55.6686 26.9999 56.2459 26.8332 56.6976 27.0896C57.1494 27.346 57.3126 27.9358 57.0616 28.3973L55.0411 32.0896C54.8528 32.423 54.5391 32.6024 54.2128 32.6024Z" fill="#474747"/>
<path d="M26.7036 61.8079C26.3648 61.8079 26.0385 61.6284 25.8754 61.295L23.9301 57.5643C23.6917 57.0899 23.8548 56.513 24.3192 56.2694L27.9712 54.2822C28.4355 54.0386 29.0003 54.2053 29.2387 54.6797C29.4771 55.154 29.314 55.7309 28.8497 55.9745L26.026 57.513L27.5319 60.3976C27.7704 60.872 27.6072 61.4489 27.1429 61.6925C27.0048 61.7694 26.8542 61.8079 26.7036 61.8079Z" fill="#474747"/>
<path d="M37.0948 20.859H27.3813C26.8668 20.859 26.4401 20.4232 26.4401 19.8975V7.15392C26.4401 6.62828 26.8668 6.19238 27.3813 6.19238H37.0948C37.6094 6.19238 38.0361 6.62828 38.0361 7.15392V19.9103C38.0361 20.436 37.6094 20.859 37.0948 20.859ZM28.3225 18.936H36.1536V8.11546H28.3225V18.936Z" fill="#474747"/>
<path d="M34.1456 11.2566H30.3807C29.8661 11.2566 29.4395 10.8207 29.4395 10.295C29.4395 9.76939 29.8661 9.3335 30.3807 9.3335H34.1456C34.6602 9.3335 35.0869 9.76939 35.0869 10.295C35.0869 10.8207 34.6602 11.2566 34.1456 11.2566Z" fill="#474747"/>
<path d="M34.1456 14.3078H30.3807C29.8661 14.3078 29.4395 13.8719 29.4395 13.3463C29.4395 12.8207 29.8661 12.3848 30.3807 12.3848H34.1456C34.6602 12.3848 35.0869 12.8207 35.0869 13.3463C35.0869 13.8719 34.6602 14.3078 34.1456 14.3078Z" fill="#474747"/>
<path d="M31.598 17.3464H30.3807C29.8661 17.3464 29.4395 16.9105 29.4395 16.3849C29.4395 15.8592 29.8661 15.4233 30.3807 15.4233H31.598C32.1126 15.4233 32.5393 15.8592 32.5393 16.3849C32.5393 16.9105 32.1126 17.3464 31.598 17.3464Z" fill="#474747"/>
<path d="M50.0839 54.7435C49.9082 54.7435 49.7451 54.6922 49.5819 54.6025C49.1427 54.3204 49.0046 53.7307 49.2807 53.282L52.3554 48.2563H48.0257C47.6744 48.2563 47.3481 48.0512 47.1849 47.7307C47.0218 47.4102 47.0469 47.0256 47.2477 46.7307L51.9036 39.9999C52.2048 39.564 52.7947 39.4615 53.2214 39.7692C53.6481 40.0769 53.7485 40.6794 53.4473 41.1153L49.858 46.3204H54.0622C54.401 46.3204 54.7148 46.5127 54.8905 46.8204C55.0536 47.1281 55.0411 47.4999 54.8654 47.7948L50.8871 54.2948C50.7114 54.5897 50.3977 54.7435 50.0839 54.7435Z" fill="#474747"/>
<path d="M20.0397 45.1407C19.6632 45.1407 19.2993 44.9099 19.1612 44.5253C18.4961 42.7561 17.1407 41.3073 15.4339 40.5766C14.957 40.3715 14.7311 39.8073 14.9319 39.3202C15.1327 38.833 15.6849 38.6022 16.1618 38.8073C18.3329 39.7561 20.0773 41.5894 20.9182 43.8458C21.1064 44.3458 20.8554 44.8971 20.3785 45.0894C20.2656 45.1279 20.1526 45.1407 20.0397 45.1407Z" fill="#474747"/>
<path d="M9.82418 50.9357C9.58574 50.9357 9.33474 50.846 9.15904 50.6536C8.7951 50.2818 8.7951 49.6665 9.17159 49.2947L11.8071 46.628V38.7819C11.8071 38.2562 12.2337 37.8203 12.7483 37.8203C13.2628 37.8203 13.6895 38.2562 13.6895 38.7819V47.0254C13.6895 47.2818 13.5891 47.5254 13.4134 47.7049L10.5019 50.6536C10.3011 50.846 10.0626 50.9357 9.82418 50.9357Z" fill="#474747"/>
<path d="M12.7482 56.3333C12.2337 56.3333 11.807 55.8974 11.807 55.3718V55.0128C11.807 54.4872 12.2337 54.0513 12.7482 54.0513C13.2628 54.0513 13.6895 54.4872 13.6895 55.0128V55.3718C13.6895 55.8974 13.2628 56.3333 12.7482 56.3333Z" fill="#474747"/>
<path d="M4.94229 47.987H4.59089C4.07635 47.987 3.64966 47.5511 3.64966 47.0255C3.64966 46.4999 4.07635 46.064 4.59089 46.064H4.94229C5.45683 46.064 5.88352 46.4999 5.88352 47.0255C5.88352 47.564 5.45683 47.987 4.94229 47.987Z" fill="#474747"/>
<path d="M20.9056 47.987H20.5542C20.0397 47.987 19.613 47.5511 19.613 47.0255C19.613 46.4999 20.0397 46.064 20.5542 46.064H20.9056C21.4201 46.064 21.8468 46.4999 21.8468 47.0255C21.8468 47.564 21.4201 47.987 20.9056 47.987Z" fill="#474747"/>
<path d="M7.22633 42.3589C6.98788 42.3589 6.74943 42.2692 6.56119 42.0768L6.31019 41.8204C5.94625 41.4486 5.94625 40.8333 6.31019 40.4615C6.67413 40.0897 7.27652 40.0897 7.64047 40.4615L7.89146 40.7179C8.25541 41.0897 8.25541 41.7051 7.89146 42.0768C7.70322 42.2563 7.46477 42.3589 7.22633 42.3589Z" fill="#474747"/>
<path d="M18.5212 53.8843C18.2827 53.8843 18.0443 53.7945 17.856 53.6022L17.6051 53.3458C17.2411 52.974 17.2411 52.3586 17.6051 51.9869C17.969 51.6151 18.5714 51.6151 18.9353 51.9869L19.1863 52.2433C19.5503 52.6151 19.5503 53.2304 19.1863 53.6022C18.9981 53.7945 18.7596 53.8843 18.5212 53.8843Z" fill="#474747"/>
<path d="M6.97533 53.8843C6.73688 53.8843 6.49844 53.7945 6.31019 53.6022C5.94625 53.2304 5.94625 52.6151 6.31019 52.2433L6.56119 51.9869C6.92513 51.6151 7.52752 51.6151 7.89146 51.9869C8.25541 52.3586 8.25541 52.974 7.89146 53.3458L7.64047 53.6022C7.45222 53.7945 7.21378 53.8843 6.97533 53.8843Z" fill="#474747"/>
</g>
<defs>
<clipPath id="clip0_48_453">
<rect width="63" height="61" fill="white" transform="translate(0.700439 0.807617)"/>
</clipPath>
</defs>
</svg>
