<svg width="52" height="58" viewBox="0 0 52 58" fill="none" xmlns="http://www.w3.org/2000/svg">
<g clip-path="url(#clip0_48_388)">
<path d="M21.6288 57.8077C21.2542 57.8077 20.9135 57.5652 20.8114 57.184C20.6865 56.722 20.9476 56.2485 21.4018 56.1099L30.1441 53.5688C30.5983 53.4418 31.0638 53.7074 31.2 54.1694C31.3249 54.6314 31.0638 55.105 30.6096 55.2436L21.8673 57.7846C21.7878 57.7962 21.7083 57.8077 21.6288 57.8077Z" fill="#474747"/>
<path d="M21.4472 51.0508C21.0044 51.0508 20.6297 50.7043 20.5956 50.2423L20.4253 47.7936C20.3345 46.5347 19.5965 45.5067 18.4384 45.0562C17.2803 44.6058 16.0541 44.8483 15.1572 45.7262L14.9188 45.9572C12.9092 48.0015 9.62795 48.0015 7.61834 45.9456C5.60873 43.9012 5.60873 40.5632 7.61834 38.5189C8.82183 37.2945 8.79913 35.7353 8.36769 34.6727C7.93624 33.6216 6.869 32.5012 5.16594 32.5012C2.31616 32.5128 0 30.1566 0 27.2575C0 24.3584 2.31616 22.0021 5.16594 22.0021C6.869 22.0021 7.93624 20.8818 8.36769 19.8307C8.79913 18.7797 8.82183 17.2204 7.61834 15.9961C6.64192 15.0028 6.1083 13.686 6.1083 12.2769C6.1083 10.8678 6.64192 9.55108 7.61834 8.55777C9.62795 6.51339 12.9092 6.51339 14.9188 8.55777C16.1223 9.78208 17.655 9.75898 18.6882 9.32008C19.7214 8.88117 20.8227 7.79546 20.8227 6.06294C20.8341 3.16385 23.1502 0.807617 26 0.807617C28.8498 0.807617 31.1659 3.16385 31.1659 6.06294C31.1659 7.79546 32.2672 8.88117 33.3004 9.32008C34.3336 9.75898 35.8664 9.78208 37.0699 8.55777C39.0908 6.50184 42.3607 6.50184 44.3817 8.55777C46.3913 10.6021 46.3913 13.9401 44.3817 15.9845C43.1782 17.2088 43.2122 18.7681 43.6323 19.8192C44.0638 20.8702 45.131 21.9906 46.8341 21.9906C49.6838 21.9906 52 24.3468 52 27.2459C52 30.145 49.6838 32.5012 46.8341 32.5012C45.131 32.5012 44.0638 33.6216 43.6323 34.6727C43.2009 35.7237 43.1782 37.283 44.3817 38.5073C45.3581 39.5006 45.8917 40.8173 45.8917 42.2265C45.8917 43.6356 45.3581 44.9523 44.3817 45.9456C42.3721 47.99 39.1022 47.99 37.0812 45.9572L36.7974 45.68C35.9004 44.8021 34.6856 44.548 33.5275 44.9985C32.3694 45.449 31.6201 46.4654 31.5293 47.7243C31.4952 48.1979 31.0865 48.5559 30.621 48.5213C30.1555 48.4866 29.8035 48.0708 29.8376 47.5973C29.9852 45.68 31.1659 44.0745 32.9258 43.3815C34.6856 42.7 36.6271 43.0927 37.9895 44.4325L38.2734 44.7213L38.2847 44.7328C39.6358 46.1073 41.8271 46.1073 43.1782 44.7328C43.8367 44.0629 44.1886 43.1851 44.1886 42.238C44.1886 41.3024 43.8253 40.4131 43.1782 39.7432C41.6681 38.207 41.2367 36.0125 42.0541 34.0143C42.8716 32.0161 44.6996 30.7687 46.8227 30.7687C48.7301 30.7687 50.2856 29.1863 50.2856 27.2459C50.2856 25.3055 48.7301 23.7231 46.8227 23.7231C44.6882 23.7231 42.8603 22.4757 42.0428 20.4775C41.2253 18.4793 41.6568 16.2848 43.1668 14.7486C44.5179 13.3742 44.5065 11.145 43.1668 9.77053C41.8157 8.39607 39.6245 8.39607 38.2734 9.77053C36.7633 11.3067 34.6061 11.7456 32.6419 10.914C30.6777 10.0824 29.4515 8.22281 29.4515 6.06294C29.4515 4.12251 27.8961 2.54014 25.9886 2.54014C24.0812 2.54014 22.5258 4.12251 22.5258 6.06294C22.5258 8.23436 21.2996 10.0939 19.3354 10.9255C17.3712 11.7572 15.214 11.3183 13.7039 9.79364C12.3528 8.41917 10.1616 8.41917 8.81048 9.79364C8.15197 10.4635 7.8 11.3414 7.8 12.2885C7.8 13.2356 8.16332 14.1134 8.81048 14.7833C10.3205 16.3195 10.752 18.514 9.9345 20.5122C9.11703 22.5104 7.28908 23.7578 5.16594 23.7578C3.25852 23.7347 1.70306 25.317 1.70306 27.2575C1.70306 29.1979 3.25852 30.7803 5.16594 30.7803C7.30044 30.7803 9.12838 32.0277 9.94585 34.0259C10.7633 36.024 10.3319 38.2186 8.82183 39.7547C7.47074 41.1292 7.47074 43.3699 8.82183 44.7328C10.1729 46.1073 12.3642 46.1073 13.7153 44.7328L13.7266 44.7213L13.9651 44.4787C15.3275 43.1389 17.269 42.7462 19.0402 43.4392C20.8114 44.1322 21.9808 45.7493 22.117 47.6781L22.2873 50.1268C22.3214 50.6003 21.9694 51.0161 21.4926 51.0508C21.4812 51.0508 21.4585 51.0508 21.4472 51.0508Z" fill="#474747"/>
<path d="M21.4472 54.4583C21.0725 54.4583 20.7319 54.2042 20.6297 53.8114C20.5048 53.3494 20.7773 52.8759 21.2314 52.7488L30.3371 50.254C30.7913 50.127 31.2568 50.4042 31.3817 50.8662C31.5066 51.3282 31.2341 51.8017 30.7799 51.9288L21.6742 54.4236C21.5948 54.4467 21.5153 54.4583 21.4472 54.4583Z" fill="#474747"/>
<path d="M26 39.2119C19.71 39.2119 14.5895 34.0028 14.5895 27.604C14.5895 21.2052 19.71 15.9961 26 15.9961C32.2899 15.9961 37.4105 21.2052 37.4105 27.604C37.4105 34.0028 32.2899 39.2119 26 39.2119ZM26 17.7286C20.6524 17.7286 16.2926 22.1639 16.2926 27.604C16.2926 33.0441 20.6524 37.4794 26 37.4794C31.3476 37.4794 35.7074 33.0441 35.7074 27.604C35.7074 22.1639 31.3476 17.7286 26 17.7286Z" fill="#474747"/>
<path d="M24.8987 34.6609C24.7397 34.6609 24.5921 34.6147 24.4445 34.5339C24.0472 34.2798 23.9223 33.7485 24.1721 33.3442L26.9537 28.8166H23.048C22.7301 28.8166 22.4349 28.6318 22.2873 28.343C22.1397 28.0543 22.1625 27.7077 22.3441 27.4421L26.5677 21.3667C26.8402 20.974 27.3738 20.8816 27.7598 21.1588C28.1459 21.436 28.2367 21.9789 27.9642 22.3716L24.6943 27.0725H28.4978C28.8044 27.0725 29.0882 27.2457 29.2472 27.5229C29.3948 27.8001 29.3834 28.1351 29.2245 28.4008L25.6253 34.2567C25.455 34.5223 25.1825 34.6609 24.8987 34.6609Z" fill="#474747"/>
<path d="M26.0568 14.1479C25.5913 14.1479 25.2052 13.7552 25.2052 13.2816V11.6646C25.2052 11.191 25.5913 10.7983 26.0568 10.7983C26.5223 10.7983 26.9083 11.191 26.9083 11.6646V13.2816C26.9083 13.7552 26.5223 14.1479 26.0568 14.1479Z" fill="#474747"/>
<path d="M26.0568 44.4096C25.5913 44.4096 25.2052 44.0169 25.2052 43.5433V41.9263C25.2052 41.4528 25.5913 41.0601 26.0568 41.0601C26.5223 41.0601 26.9083 41.4528 26.9083 41.9263V43.5433C26.9083 44.0169 26.5223 44.4096 26.0568 44.4096Z" fill="#474747"/>
<path d="M11.9782 28.4703H10.3886C9.92314 28.4703 9.53711 28.0776 9.53711 27.6041C9.53711 27.1305 9.92314 26.7378 10.3886 26.7378H11.9782C12.4437 26.7378 12.8297 27.1305 12.8297 27.6041C12.8297 28.0776 12.4437 28.4703 11.9782 28.4703Z" fill="#474747"/>
<path d="M41.7249 28.4703H40.1354C39.6699 28.4703 39.2838 28.0776 39.2838 27.6041C39.2838 27.1305 39.6699 26.7378 40.1354 26.7378H41.7249C42.1904 26.7378 42.5764 27.1305 42.5764 27.6041C42.5764 28.0776 42.1904 28.4703 41.7249 28.4703Z" fill="#474747"/>
<path d="M16.0996 18.3409C15.8838 18.3409 15.6681 18.26 15.4978 18.0868L14.3738 16.9433C14.0445 16.6083 14.0445 16.0539 14.3738 15.719C14.7031 15.384 15.248 15.384 15.5773 15.719L16.7013 16.8625C17.0306 17.1974 17.0306 17.7518 16.7013 18.0868C16.531 18.26 16.3153 18.3409 16.0996 18.3409Z" fill="#474747"/>
<path d="M37.138 39.7432C36.9223 39.7432 36.7065 39.6624 36.5362 39.4891L35.4122 38.3456C35.083 38.0107 35.083 37.4563 35.4122 37.1213C35.7415 36.7864 36.2865 36.7864 36.6157 37.1213L37.7397 38.2648C38.069 38.5998 38.069 39.1542 37.7397 39.4891C37.5694 39.6508 37.3537 39.7432 37.138 39.7432Z" fill="#474747"/>
<path d="M14.9756 39.7432C14.7598 39.7432 14.5441 39.6624 14.3738 39.4891C14.0445 39.1542 14.0445 38.5998 14.3738 38.2648L15.4978 37.1213C15.8271 36.7864 16.3721 36.7864 16.7013 37.1213C17.0306 37.4563 17.0306 38.0107 16.7013 38.3456L15.5773 39.4891C15.407 39.6508 15.1913 39.7432 14.9756 39.7432Z" fill="#474747"/>
<path d="M36.014 18.3409C35.7983 18.3409 35.5825 18.26 35.4122 18.0868C35.083 17.7518 35.083 17.1974 35.4122 16.8625L36.5362 15.719C36.8655 15.384 37.4105 15.384 37.7397 15.719C38.069 16.0539 38.069 16.6083 37.7397 16.9433L36.6157 18.0868C36.4454 18.26 36.2297 18.3409 36.014 18.3409Z" fill="#474747"/>
</g>
<defs>
<clipPath id="clip0_48_388">
<rect width="52" height="57" fill="white" transform="translate(0 0.807617)"/>
</clipPath>
</defs>
</svg>
