<svg width="47" height="48" viewBox="0 0 47 48" fill="none" xmlns="http://www.w3.org/2000/svg">
<g clip-path="url(#clip0_48_340)">
<path d="M0.775271 42.4455C0.593944 42.4455 0.412616 42.3792 0.269462 42.2371C-0.00730122 41.9624 -0.00730122 41.5078 0.269462 41.2331L7.30307 34.2522C7.54166 34.0154 7.91386 33.9775 8.19062 34.1575L11.2732 36.0993L18.3164 29.772C18.574 29.5447 18.9653 29.5257 19.2325 29.7341L23.2122 32.8125L29.2342 26.04C29.4632 25.7843 29.8259 25.7274 30.1217 25.8885L35.1417 28.7301L44.8188 19.3054C45.1052 19.0307 45.5537 19.0307 45.8305 19.3149C46.1072 19.5991 46.1072 20.0442 45.8209 20.3189L35.7811 30.113C35.552 30.3308 35.1989 30.3782 34.9222 30.2266L29.9309 27.404L23.8421 34.2428C23.5939 34.5269 23.1645 34.5648 22.8686 34.3375L18.8317 31.2117L11.8267 37.5011C11.5881 37.719 11.235 37.7474 10.9583 37.5769L7.90432 35.6541L1.27154 42.2371C1.13793 42.3697 0.956599 42.4455 0.775271 42.4455Z" fill="#474747"/>
<path d="M45.3437 24.8846C44.9525 24.8846 44.628 24.5625 44.628 24.1742V20.518H40.9442C40.5529 20.518 40.2284 20.1959 40.2284 19.8076C40.2284 19.4192 40.5529 19.0972 40.9442 19.0972H45.3437C45.735 19.0972 46.0595 19.4192 46.0595 19.8076V24.1742C46.0595 24.5625 45.735 24.8846 45.3437 24.8846Z" fill="#474747"/>
<path d="M0.775277 47.57C0.383991 47.57 0.0595093 47.248 0.0595093 46.8596V44.3496C0.0595093 43.9612 0.383991 43.6392 0.775277 43.6392C1.16656 43.6392 1.49104 43.9612 1.49104 44.3496V46.8596C1.49104 47.248 1.16656 47.57 0.775277 47.57Z" fill="#474747"/>
<path d="M4.19187 47.57C3.80059 47.57 3.4761 47.248 3.4761 46.8596V42.9951C3.4761 42.6067 3.80059 42.2847 4.19187 42.2847C4.58316 42.2847 4.90764 42.6067 4.90764 42.9951V46.8596C4.90764 47.248 4.5927 47.57 4.19187 47.57Z" fill="#474747"/>
<path d="M7.61802 47.5699C7.22673 47.5699 6.90225 47.2479 6.90225 46.8595V39.7934C6.90225 39.4051 7.22673 39.083 7.61802 39.083C8.00931 39.083 8.33379 39.4051 8.33379 39.7934V46.8595C8.33379 47.2479 8.00931 47.5699 7.61802 47.5699Z" fill="#474747"/>
<path d="M11.0346 47.5699C10.6433 47.5699 10.3188 47.2479 10.3188 46.8595V39.7934C10.3188 39.4051 10.6433 39.083 11.0346 39.083C11.4259 39.083 11.7504 39.4051 11.7504 39.7934V46.8595C11.7504 47.2479 11.4354 47.5699 11.0346 47.5699Z" fill="#474747"/>
<path d="M14.4608 47.5701C14.0695 47.5701 13.745 47.2481 13.745 46.8597V38.3349C13.745 37.9466 14.0695 37.6245 14.4608 37.6245C14.852 37.6245 15.1765 37.9466 15.1765 38.3349V46.8597C15.1765 47.2481 14.852 47.5701 14.4608 47.5701Z" fill="#474747"/>
<path d="M17.8774 47.5698C17.4861 47.5698 17.1616 47.2478 17.1616 46.8594V35.6162C17.1616 35.2278 17.4861 34.9058 17.8774 34.9058C18.2686 34.9058 18.5931 35.2278 18.5931 35.6162V46.8499C18.5931 47.2478 18.2782 47.5698 17.8774 47.5698Z" fill="#474747"/>
<path d="M21.3035 47.5698C20.9122 47.5698 20.5877 47.2477 20.5877 46.8594V36.5917C20.5877 36.2034 20.9122 35.8813 21.3035 35.8813C21.6948 35.8813 22.0193 36.2034 22.0193 36.5917V46.8594C22.0193 47.2477 21.6948 47.5698 21.3035 47.5698Z" fill="#474747"/>
<path d="M24.7201 47.5698C24.3288 47.5698 24.0043 47.2477 24.0043 46.8594V36.5917C24.0043 36.2034 24.3288 35.8813 24.7201 35.8813C25.1114 35.8813 25.4359 36.2034 25.4359 36.5917V46.8594C25.4359 47.2477 25.1114 47.5698 24.7201 47.5698Z" fill="#474747"/>
<path d="M28.1367 47.5701C27.7454 47.5701 27.4209 47.2481 27.4209 46.8597V33.2958C27.4209 32.9075 27.7454 32.5854 28.1367 32.5854C28.528 32.5854 28.8525 32.9075 28.8525 33.2958V46.8597C28.8525 47.2481 28.5375 47.5701 28.1367 47.5701Z" fill="#474747"/>
<path d="M31.5628 47.5702C31.1715 47.5702 30.847 47.2481 30.847 46.8598V31.1552C30.847 30.7669 31.1715 30.4448 31.5628 30.4448C31.9541 30.4448 32.2786 30.7669 32.2786 31.1552V46.8503C32.2786 47.2481 31.9541 47.5702 31.5628 47.5702Z" fill="#474747"/>
<path d="M34.9794 47.5698C34.5882 47.5698 34.2637 47.2478 34.2637 46.8594V32.9072C34.2637 32.5188 34.5882 32.1968 34.9794 32.1968C35.3707 32.1968 35.6952 32.5188 35.6952 32.9072V46.8594C35.6952 47.2478 35.3803 47.5698 34.9794 47.5698Z" fill="#474747"/>
<path d="M38.4056 47.5702C38.0143 47.5702 37.6898 47.2481 37.6898 46.8598V31.1552C37.6898 30.7669 38.0143 30.4448 38.4056 30.4448C38.7968 30.4448 39.1213 30.7669 39.1213 31.1552V46.8503C39.1213 47.2481 38.7968 47.5702 38.4056 47.5702Z" fill="#474747"/>
<path d="M41.8222 47.57C41.4309 47.57 41.1064 47.248 41.1064 46.8596V27.8588C41.1064 27.4705 41.4309 27.1484 41.8222 27.1484C42.2135 27.1484 42.5379 27.4705 42.5379 27.8588V46.8596C42.5379 47.248 42.223 47.57 41.8222 47.57Z" fill="#474747"/>
<path d="M45.2483 47.57C44.857 47.57 44.5325 47.248 44.5325 46.8596V27.8588C44.5325 27.4705 44.857 27.1484 45.2483 27.1484C45.6396 27.1484 45.9641 27.4705 45.9641 27.8588V46.8596C45.9641 47.248 45.6396 47.57 45.2483 47.57Z" fill="#474747"/>
<path d="M34.9412 26.2294C34.55 26.2294 34.2255 25.9074 34.2255 25.519V1.99062H15.9495V3.07043C15.9495 3.45878 15.6251 3.78083 15.2338 3.78083C14.8425 3.78083 14.518 3.45878 14.518 3.07043V1.28022C14.518 0.891872 14.8425 0.569824 15.2338 0.569824H34.9412C35.3325 0.569824 35.657 0.891872 35.657 1.28022V25.519C35.657 25.9074 35.3325 26.2294 34.9412 26.2294Z" fill="#474747"/>
<path d="M31.391 24.5246C30.9997 24.5246 30.6753 24.2025 30.6753 23.8142V6.07314H23.9661C23.5748 6.07314 23.2504 5.75109 23.2504 5.36274C23.2504 4.97439 23.5748 4.65234 23.9661 4.65234H31.391C31.7823 4.65234 32.1068 4.97439 32.1068 5.36274V23.8142C32.1068 24.2025 31.7919 24.5246 31.391 24.5246Z" fill="#474747"/>
<path d="M31.391 11.6898H23.9661C23.5748 11.6898 23.2504 11.3678 23.2504 10.9794C23.2504 10.5911 23.5748 10.269 23.9661 10.269H31.391C31.7823 10.269 32.1068 10.5911 32.1068 10.9794C32.1068 11.3678 31.7919 11.6898 31.391 11.6898Z" fill="#474747"/>
<path d="M31.391 17.307H23.9661C23.5748 17.307 23.2504 16.985 23.2504 16.5966C23.2504 16.2083 23.5748 15.8862 23.9661 15.8862H31.391C31.7823 15.8862 32.1068 16.2083 32.1068 16.5966C32.1068 16.985 31.7919 17.307 31.391 17.307Z" fill="#474747"/>
<path d="M31.391 22.9237H23.9661C23.5748 22.9237 23.2504 22.6017 23.2504 22.2133C23.2504 21.825 23.5748 21.5029 23.9661 21.5029H31.391C31.7823 21.5029 32.1068 21.825 32.1068 22.2133C32.1068 22.6017 31.7919 22.9237 31.391 22.9237Z" fill="#474747"/>
<path d="M26.2089 26.7028C25.8176 26.7028 25.4931 26.3808 25.4931 25.9925V5.54243C25.4931 5.15408 25.8176 4.83203 26.2089 4.83203C26.6002 4.83203 26.9246 5.15408 26.9246 5.54243V25.9925C26.9246 26.3808 26.6002 26.7028 26.2089 26.7028Z" fill="#474747"/>
<path d="M13.1342 32.1114H1.7678C1.37651 32.1114 1.05203 31.7894 1.05203 31.401V5.41938C1.05203 5.03103 1.37651 4.70898 1.7678 4.70898H21.2939C21.6852 4.70898 22.0097 5.03103 22.0097 5.41938V28.3605C22.0097 28.7489 21.6852 29.0709 21.2939 29.0709C20.9027 29.0709 20.5782 28.7489 20.5782 28.3605V6.12978H2.48357V30.6906H13.1342C13.5255 30.6906 13.85 31.0127 13.85 31.401C13.85 31.7894 13.5255 32.1114 13.1342 32.1114Z" fill="#474747"/>
<path d="M40.1902 17.3256C39.7989 17.3256 39.4744 17.0035 39.4744 16.6152V4.70888H37.4703C37.079 4.70888 36.7545 4.38684 36.7545 3.99848C36.7545 3.61013 37.079 3.28809 37.4703 3.28809H40.1902C40.5815 3.28809 40.906 3.61013 40.906 3.99848V16.6152C40.906 17.0035 40.5815 17.3256 40.1902 17.3256Z" fill="#474747"/>
<path d="M17.2856 11.7279H5.73792C5.34664 11.7279 5.02216 11.4059 5.02216 11.0175C5.02216 10.6292 5.34664 10.3071 5.73792 10.3071H17.2856C17.6769 10.3071 18.0014 10.6292 18.0014 11.0175C18.0014 11.4059 17.6769 11.7279 17.2856 11.7279Z" fill="#474747"/>
<path d="M17.2856 15.3651H5.73792C5.34664 15.3651 5.02216 15.0431 5.02216 14.6547C5.02216 14.2664 5.34664 13.9443 5.73792 13.9443H17.2856C17.6769 13.9443 18.0014 14.2664 18.0014 14.6547C18.0014 15.0431 17.6769 15.3651 17.2856 15.3651Z" fill="#474747"/>
<path d="M17.2856 22.6395H5.73792C5.34664 22.6395 5.02216 22.3175 5.02216 21.9291C5.02216 21.5408 5.34664 21.2188 5.73792 21.2188H17.2856C17.6769 21.2188 18.0014 21.5408 18.0014 21.9291C18.0014 22.3175 17.6769 22.6395 17.2856 22.6395Z" fill="#474747"/>
<path d="M17.2856 19.0023H5.73792C5.34664 19.0023 5.02216 18.6803 5.02216 18.2919C5.02216 17.9036 5.34664 17.5815 5.73792 17.5815H17.2856C17.6769 17.5815 18.0014 17.9036 18.0014 18.2919C18.0014 18.6803 17.6769 19.0023 17.2856 19.0023Z" fill="#474747"/>
<path d="M10.2234 26.2768H5.73792C5.34664 26.2768 5.02216 25.9547 5.02216 25.5664C5.02216 25.178 5.34664 24.856 5.73792 24.856H10.2329C10.6242 24.856 10.9487 25.178 10.9487 25.5664C10.9487 25.9547 10.6242 26.2768 10.2234 26.2768Z" fill="#474747"/>
</g>
<defs>
<clipPath id="clip0_48_340">
<rect width="46" height="47" fill="white" transform="translate(0.0595093 0.569824)"/>
</clipPath>
</defs>
</svg>
