<svg width="298" height="22" viewBox="0 0 298 22" preserveAspectRatio="none" fill="none" xmlns="http://www.w3.org/2000/svg">
<g clip-path="url(#clip0_48_494)">
<path d="M248.705 21.8161C248.609 21.8161 248.609 21.8161 248.512 21.8161C248.223 21.7219 248.03 21.4394 248.03 21.1569V15.8833H0V14.4708H248.705C249.091 14.4708 249.477 14.7533 249.477 15.2241V18.7084L253.625 12.1165H242.917C242.628 12.1165 242.435 12.0223 242.338 11.7398C242.242 11.4573 242.242 11.269 242.338 11.0806L247.837 1.28692C248.03 1.00441 248.319 0.816068 248.609 0.910239C248.898 1.00441 249.188 1.28692 249.188 1.56943V6.46629H298V7.87885H248.512C248.126 7.87885 247.741 7.59634 247.741 7.12548V4.30037L244.171 10.6098H254.879C255.169 10.6098 255.362 10.704 255.554 10.9865C255.651 11.1748 255.651 11.4573 255.554 11.7398L249.381 21.5336C249.188 21.6277 248.995 21.8161 248.705 21.8161Z" fill="#AFAFAF"/>
</g>
<defs>
<clipPath id="clip0_48_494">
<rect width="298" height="21" fill="white" transform="translate(0 0.815918)"/>
</clipPath>
</defs>
</svg>
