<svg width="456" height="22" viewBox="0 0 456 22" preserveAspectRatio="none" fill="none" xmlns="http://www.w3.org/2000/svg">
<g clip-path="url(#clip0_28_221)">
<path d="M406.705 21.7895C406.609 21.7895 406.609 21.7895 406.512 21.7895C406.223 21.6953 406.03 21.4128 406.03 21.1303V15.8567H0V14.4442H406.705C407.091 14.4442 407.477 14.7267 407.477 15.1975V18.6818L411.625 12.0899H400.917C400.628 12.0899 400.435 11.9957 400.338 11.7132C400.242 11.4307 400.242 11.2424 400.338 11.054L405.837 1.26031C406.03 0.977798 406.319 0.789457 406.609 0.883627C406.898 0.977798 407.188 1.26031 407.188 1.54282V6.43968H456V7.85224H406.512C406.126 7.85224 405.741 7.56973 405.741 7.09887V4.27376L402.171 10.5832H412.879C413.169 10.5832 413.362 10.6773 413.554 10.9599C413.651 11.1482 413.651 11.4307 413.554 11.7132L407.381 21.5069C407.188 21.6011 406.995 21.7895 406.705 21.7895Z" fill="#AFAFAF"/>
</g>
<defs>
<clipPath id="clip0_28_221">
<rect width="456" height="21" fill="white" transform="translate(0 0.789551)"/>
</clipPath>
</defs>
</svg>
