<svg width="489" height="20" viewBox="0 0 489 20" preserveAspectRatio="none" fill="none" xmlns="http://www.w3.org/2000/svg">
<g clip-path="url(#clip0_22_120)">
<path d="M436.138 20C436.034 20 436.034 20 435.931 20C435.621 19.9103 435.414 19.6412 435.414 19.3722V14.3498H-47.0772V13.0045H436.138C436.552 13.0045 436.966 13.2735 436.966 13.722V17.0403L441.414 10.7623H429.931C429.621 10.7623 429.414 10.6726 429.31 10.4036C429.207 10.1345 429.207 9.95515 429.31 9.77577L435.207 0.44842C435.414 0.179361 435.724 -1.08778e-05 436.034 0.0896752C436.345 0.179361 436.655 0.44842 436.655 0.717478V5.38116H489V6.72645H435.931C435.517 6.72645 435.103 6.45739 435.103 6.00896V3.31837L431.276 9.32734H442.759C443.069 9.32734 443.276 9.41703 443.483 9.68609C443.586 9.86546 443.586 10.1345 443.483 10.4036L436.862 19.7309C436.655 19.8206 436.448 20 436.138 20Z" fill="#0B825A"/>
</g>
<defs>
<clipPath id="clip0_22_120">
<rect width="489" height="20" fill="white"/>
</clipPath>
</defs>
</svg>
