<svg width="513" height="441" viewBox="0 0 513 441" fill="none" xmlns="http://www.w3.org/2000/svg">
<g clip-path="url(#clip0_19_73)">
<path d="M234.638 441C233.772 441 232.473 441 231.608 440.566C226.846 439.266 223.815 434.929 223.815 430.159V312.212H10.8228C4.76203 312.212 0 307.443 0 301.372C0 295.301 4.76203 290.531 10.8228 290.531H234.638C240.699 290.531 245.461 295.301 245.461 301.372V393.301L351.524 231.124H122.081C118.185 231.124 114.722 228.956 112.557 225.92C110.825 222.451 110.392 218.549 112.557 215.08L227.278 5.63719C229.443 1.30091 234.638 -0.867233 239.4 0.433652C244.162 1.73454 247.625 6.07082 247.625 10.8407V121.85H502.177C508.238 121.85 513 126.619 513 132.69C513 138.761 508.238 143.531 502.177 143.531H236.803C230.742 143.531 225.98 138.761 225.98 132.69V53.3363L140.263 209.443H371.871C375.767 209.443 379.663 211.611 381.395 215.08C383.127 218.549 383.127 222.885 380.962 226.354L244.162 435.796C241.997 438.832 238.534 441 234.638 441Z" fill="white" fill-opacity="0.5"/>
</g>
<defs>
<clipPath id="clip0_19_73">
<rect width="513" height="441" fill="white"/>
</clipPath>
</defs>
</svg>
