<svg width="1437" height="21" viewBox="0 0 1437 21" preserveAspectRatio="none" fill="none" xmlns="http://www.w3.org/2000/svg">
<path d="M1366.3 21C1366.16 21 1366.16 21 1366.02 21C1365.61 20.9059 1365.33 20.6233 1365.33 20.3408V15.0673H0V13.6547H1366.3C1366.85 13.6547 1367.41 13.9372 1367.41 14.4081V17.8924L1373.36 11.3005H1358C1357.58 11.3005 1357.31 11.2063 1357.17 10.9238C1357.03 10.6413 1357.03 10.4529 1357.17 10.2646L1365.06 0.47088C1365.33 0.188369 1365.75 2.82526e-05 1366.16 0.0941987C1366.58 0.188369 1366.99 0.47088 1366.99 0.753391V5.65025H1437V7.06281H1366.02C1365.47 7.06281 1364.92 6.7803 1364.92 6.30944V3.48433L1359.8 9.79375H1375.16C1375.57 9.79375 1375.85 9.88792 1376.12 10.1704C1376.26 10.3588 1376.26 10.6413 1376.12 10.9238L1367.27 20.7175C1366.99 20.8117 1366.72 21 1366.3 21Z" fill="#0B825A"/>
</svg>
