<svg width="615" height="21" viewBox="0 0 615 21" preserveAspectRatio="none" fill="none" xmlns="http://www.w3.org/2000/svg">
<path d="M548.517 20.9999C548.387 20.9999 548.387 20.9999 548.257 20.9999C547.867 20.9057 547.606 20.6232 547.606 20.3407V15.0672H0V13.6546H548.517C549.037 13.6546 549.558 13.9371 549.558 14.408V17.8923L555.152 11.3004H540.711C540.32 11.3004 540.06 11.2062 539.93 10.9237C539.8 10.6412 539.8 10.4528 539.93 10.2645L547.346 0.470758C547.606 0.188247 547.997 -9.38177e-05 548.387 0.0940766C548.777 0.188247 549.168 0.470758 549.168 0.753269V5.65013H615V7.06269H548.257C547.736 7.06269 547.216 6.78018 547.216 6.30932V3.48421L542.402 9.79363H556.844C557.234 9.79363 557.494 9.8878 557.754 10.1703C557.885 10.3587 557.885 10.6412 557.754 10.9237L549.428 20.7174C549.168 20.8116 548.907 20.9999 548.517 20.9999Z" fill="#0B825A"/>
</svg>
