<svg width="514" height="442" viewBox="0 0 514 442" fill="none" xmlns="http://www.w3.org/2000/svg">
<g clip-path="url(#clip0_25_127)">
<path d="M235.138 441.134C234.272 441.134 232.973 441.134 232.108 440.7C227.346 439.399 224.315 435.063 224.315 430.293V312.346H11.3228C5.26203 312.346 0.5 307.576 0.5 301.505C0.5 295.434 5.26203 290.665 11.3228 290.665H235.138C241.199 290.665 245.961 295.434 245.961 301.505V393.434L352.024 231.257H122.581C118.685 231.257 115.222 229.089 113.057 226.054C111.325 222.585 110.892 218.682 113.057 215.213L227.778 5.77074C229.943 1.43445 235.138 -0.733688 239.9 0.567197C244.662 1.86808 248.125 6.20436 248.125 10.9743V121.983H502.677C508.738 121.983 513.5 126.753 513.5 132.824C513.5 138.895 508.738 143.665 502.677 143.665H237.303C231.242 143.665 226.48 138.895 226.48 132.824V53.4699L140.763 209.576H372.371C376.267 209.576 380.163 211.744 381.895 215.213C383.627 218.682 383.627 223.019 381.462 226.488L244.662 435.93C242.497 438.965 239.034 441.134 235.138 441.134Z" fill="white" fill-opacity="0.5"/>
</g>
<defs>
<clipPath id="clip0_25_127">
<rect width="513" height="441" fill="white" transform="translate(0.5 0.133545)"/>
</clipPath>
</defs>
</svg>
