<svg width="298" height="22" viewBox="0 0 298 22" fill="none" xmlns="http://www.w3.org/2000/svg">
<g clip-path="url(#clip0_36_319)">
<path d="M248.705 21.5382C248.609 21.5382 248.609 21.5382 248.512 21.5382C248.223 21.4441 248.03 21.1616 248.03 20.879V15.6055H0V14.1929H248.705C249.091 14.1929 249.477 14.4755 249.477 14.9463V18.4306L253.625 11.8387H242.917C242.628 11.8387 242.435 11.7445 242.338 11.462C242.242 11.1795 242.242 10.9912 242.338 10.8028L247.837 1.00909C248.03 0.726577 248.319 0.538236 248.609 0.632407C248.898 0.726577 249.188 1.00909 249.188 1.2916V6.18846H298V7.60102H248.512C248.126 7.60102 247.741 7.3185 247.741 6.84765V4.02254L244.171 10.332H254.879C255.169 10.332 255.362 10.4261 255.554 10.7086C255.651 10.897 255.651 11.1795 255.554 11.462L249.381 21.2557C249.188 21.3499 248.995 21.5382 248.705 21.5382Z" fill="#AFAFAF"/>
</g>
<defs>
<clipPath id="clip0_36_319">
<rect width="298" height="21" fill="white" transform="translate(0 0.538086)"/>
</clipPath>
</defs>
</svg>
