<svg width="456" height="22" viewBox="0 0 456 22" preserveAspectRatio="none" fill="none" xmlns="http://www.w3.org/2000/svg">
<path d="M406.705 21.1625C406.609 21.1625 406.609 21.1625 406.512 21.1625C406.223 21.0683 406.03 20.7858 406.03 20.5033V15.2298H0V13.8172H406.705C407.091 13.8172 407.477 14.0997 407.477 14.5706V18.0549L411.625 11.463H400.917C400.628 11.463 400.435 11.3688 400.338 11.0863C400.242 10.8038 400.242 10.6154 400.338 10.4271L405.837 0.633356C406.03 0.350845 406.319 0.162504 406.609 0.256674C406.898 0.350845 407.188 0.633356 407.188 0.915867V5.81273H456V7.22528H406.512C406.126 7.22528 405.741 6.94277 405.741 6.47192V3.64681L402.171 9.95623H412.879C413.169 9.95623 413.362 10.0504 413.554 10.3329C413.651 10.5212 413.651 10.8038 413.554 11.0863L407.381 20.88C407.188 20.9742 406.995 21.1625 406.705 21.1625Z" fill="#0B825A"/>
</svg>
