<svg width="298" height="22" viewBox="0 0 298 22" preserveAspectRatio="none" fill="none" xmlns="http://www.w3.org/2000/svg">
<g clip-path="url(#clip0_99_653)">
<path d="M248.705 21.4841C248.609 21.4841 248.609 21.4841 248.512 21.4841C248.223 21.3899 248.03 21.1074 248.03 20.8249V15.5513H0V14.1388H248.705C249.091 14.1388 249.477 14.4213 249.477 14.8921V18.3764L253.625 11.7845H242.917C242.628 11.7845 242.435 11.6903 242.338 11.4078C242.242 11.1253 242.242 10.937 242.338 10.7486L247.837 0.95492C248.03 0.672408 248.319 0.484068 248.609 0.578238C248.898 0.672408 249.188 0.95492 249.188 1.23743V6.13429H298V7.54685H248.512C248.126 7.54685 247.741 7.26434 247.741 6.79348V3.96837L244.171 10.2778H254.879C255.169 10.2778 255.362 10.372 255.554 10.6545C255.651 10.8428 255.651 11.1253 255.554 11.4078L249.381 21.2016C249.188 21.2957 248.995 21.4841 248.705 21.4841Z" fill="#AFAFAF"/>
</g>
<defs>
<clipPath id="clip0_99_653">
<rect width="298" height="21" fill="white" transform="translate(0 0.48407)"/>
</clipPath>
</defs>
</svg>
