<svg width="702" height="21" viewBox="0 0 702 21" preserveAspectRatio="none" fill="none" xmlns="http://www.w3.org/2000/svg">
<g clip-path="url(#clip0_97_405)">
<path d="M626.112 21C625.964 21 625.964 21 625.815 21C625.37 20.9058 625.073 20.6233 625.073 20.3408V15.0673H-99.022V13.6547H626.112C626.706 13.6547 627.3 13.9372 627.3 14.4081V17.8924L633.686 11.3004H617.202C616.756 11.3004 616.459 11.2063 616.31 10.9238C616.162 10.6413 616.162 10.4529 616.31 10.2646L624.776 0.47085C625.073 0.188339 625.518 -2.26498e-06 625.964 0.0941681C626.409 0.188339 626.855 0.47085 626.855 0.753361V5.65022H702V7.06278H625.815C625.221 7.06278 624.627 6.78027 624.627 6.30941V3.4843L619.132 9.79372H635.617C636.062 9.79372 636.359 9.88789 636.656 10.1704C636.805 10.3587 636.805 10.6413 636.656 10.9238L627.152 20.7175C626.855 20.8117 626.558 21 626.112 21Z" fill="#0B825A"/>
</g>
<defs>
<clipPath id="clip0_97_405">
<rect width="702" height="21" fill="white"/>
</clipPath>
</defs>
</svg>
