<svg width="213" height="55" viewBox="0 0 213 55" fill="none" xmlns="http://www.w3.org/2000/svg">
<g clip-path="url(#clip0_48_531)">
<path d="M77.0298 31.2912C77.509 31.2912 77.7486 31.7726 77.7486 32.254C77.2694 34.5407 74.2745 36.2256 71.1597 36.2256C71.0399 36.2256 70.9201 36.2256 70.9201 36.2256C66.0084 36.1052 63.0135 32.8558 63.0135 27.3196C63.0135 24.4312 63.9719 21.9039 65.5292 20.3393C66.9668 19.0155 68.7638 18.4137 70.9201 18.5341C77.2694 18.8951 78.108 22.987 78.3476 27.1993C78.3476 27.5603 78.2278 27.9214 77.9882 28.1621C77.7486 28.4028 77.3892 28.6435 77.0298 28.6435H65.8886C66.248 32.1336 67.8054 33.4575 70.9201 33.5779C73.0765 33.6982 74.5141 32.3744 75.113 31.5319C75.2328 31.4115 75.3526 31.4115 75.4724 31.4115L77.0298 31.2912ZM75.2328 25.6347C74.9932 22.987 74.0349 21.3021 70.5607 21.1818C69.1232 21.0614 68.045 21.4225 67.2064 22.2649C66.3678 23.1074 65.8886 24.0702 65.7688 25.6347H75.2328Z" fill="white"/>
<path d="M95.1192 34.6609L89.1294 27.1992L95.1192 19.9781C95.4786 19.4967 95.1192 18.6543 94.5202 18.6543H92.7233C92.4837 18.6543 92.2441 18.7746 92.1243 18.895L87.3324 24.7922L82.6603 18.895C82.5405 18.6543 82.3009 18.6543 82.0613 18.6543H80.2643C79.6654 18.6543 79.306 19.3764 79.6654 19.9781L85.4156 27.1992L79.306 34.6609C78.9466 35.1423 79.306 35.9847 79.9049 35.9847H81.4623C81.7019 35.9847 81.9415 35.8644 82.0613 35.744L87.2126 29.6062L92.2441 35.744C92.3639 35.9847 92.6035 35.9847 92.8431 35.9847H94.5202C95.1192 35.9847 95.4786 35.1423 95.1192 34.6609Z" fill="white"/>
<path d="M106.62 33.0965C104.463 33.0965 103.385 32.9761 102.786 32.4947C102.187 31.893 102.067 31.1709 102.067 31.0505V21.4225H106.5C106.859 21.4225 107.219 21.0615 107.219 20.7004V19.3766C107.219 19.0155 106.859 18.6545 106.5 18.6545H102.187V13.2387C102.187 12.7573 101.828 12.5166 101.469 12.5166H100.031C99.5518 12.5166 99.3122 12.8777 99.3122 13.2387V18.7748H96.6766C96.3172 18.7748 95.9578 19.1359 95.9578 19.4969V20.8208C95.9578 21.1818 96.3172 21.5429 96.6766 21.5429H99.3122V31.0505C99.3122 31.4116 99.432 33.4575 100.989 34.7814C102.187 35.8645 103.745 36.1052 105.901 36.1052C106.26 36.1052 106.62 36.1052 106.859 35.9849C107.339 35.9849 107.698 35.6238 107.698 35.1424V34.0593C107.458 33.5779 107.099 33.0965 106.62 33.0965Z" fill="white"/>
<path d="M163.643 31.2908C164.123 31.2908 164.482 31.7722 164.362 32.2536C163.883 34.6606 160.768 36.3455 157.534 36.3455C157.414 36.3455 157.294 36.3455 157.174 36.3455C152.143 36.2251 148.908 32.8553 148.908 27.0785C148.908 24.0698 149.867 21.5424 151.544 19.8575C152.981 18.5337 154.898 17.8116 157.174 17.9319C163.763 18.293 164.602 22.6256 164.841 26.9582C164.841 27.3192 164.722 27.6803 164.482 28.0413C164.242 28.282 163.883 28.5227 163.404 28.5227H151.903C152.382 32.1332 153.94 33.4571 157.055 33.5774C159.331 33.6978 160.768 32.3739 161.367 31.5315C161.487 31.4111 161.607 31.2908 161.727 31.2908H163.643ZM161.846 25.514C161.607 22.8663 160.529 21.061 157.055 20.8203C155.617 20.7 154.419 21.061 153.58 21.9035C152.622 22.7459 152.263 23.8291 152.023 25.3936L161.846 25.514Z" fill="white"/>
<path d="M126.866 31.2908C127.345 31.2908 127.704 31.7722 127.584 32.2536C127.105 34.6606 123.99 36.3455 120.756 36.3455C120.636 36.3455 120.516 36.3455 120.397 36.3455C115.365 36.2251 112.13 32.8553 112.13 27.0785C112.13 24.0698 113.089 21.5424 114.766 19.8575C116.204 18.5337 118.12 17.8116 120.397 17.9319C126.985 18.293 127.824 22.6256 128.064 26.9582C128.064 27.3192 127.944 27.6803 127.704 28.0413C127.465 28.282 127.105 28.5227 126.626 28.5227H115.125C115.605 32.1332 117.162 33.4571 120.277 33.5774C122.553 33.6978 123.99 32.3739 124.589 31.5315C124.709 31.4111 124.829 31.2908 124.949 31.2908H126.866ZM125.069 25.514C124.829 22.8663 123.751 21.061 120.277 20.8203C118.839 20.7 117.641 21.061 116.803 21.9035C115.844 22.7459 115.485 23.8291 115.245 25.3936L125.069 25.514Z" fill="white"/>
<path d="M143.398 25.5144V35.0221C143.398 35.6238 143.877 36.1052 144.476 36.1052H145.554C146.153 36.1052 146.512 35.6238 146.512 35.1424V26.8383V25.8755C146.512 25.7551 146.512 25.5144 146.512 25.1534V24.7923C146.273 21.3022 144.835 18.2934 139.325 17.9324C137.048 17.812 135.611 18.2934 134.173 19.6173C134.053 19.7376 133.814 19.9783 133.694 20.0987V19.2562C133.694 18.6545 133.335 18.0527 132.736 18.0527H131.538C130.939 18.0527 130.46 18.5341 130.46 19.2562V35.0221C130.46 35.5035 130.939 35.9849 131.418 35.9849H132.616C133.454 35.9849 133.574 35.2628 133.574 34.4203L133.694 24.7923C133.694 24.672 133.694 24.1906 133.814 24.0702C134.053 23.2278 134.413 22.3853 135.012 21.7836C136.21 20.7004 137.048 20.8208 138.486 20.7004C140.642 20.7004 142.679 21.6632 143.158 24.3109L143.398 25.5144Z" fill="white"/>
<path d="M177.54 20.0987C177.54 20.8208 177.061 21.0615 176.342 21.1818C175.863 21.1818 175.503 21.1818 175.264 21.1818C173.347 21.1818 173.347 20.9411 171.909 22.0243C171.191 22.5057 170.951 23.3481 170.711 24.3109C170.711 24.4313 170.592 24.9127 170.592 25.033L170.472 34.661C170.472 35.5035 170.352 36.2256 169.513 36.2256H168.196C167.477 36.2256 167.357 35.6238 167.357 34.9018V19.2562C167.357 18.6545 167.717 18.0527 168.435 18.0527H169.633C170.232 18.0527 170.592 18.5341 170.592 19.2562V20.0987C170.711 19.9783 170.831 19.7376 171.071 19.6173C172.508 18.2934 173.107 18.0527 175.264 18.1731C175.384 18.1731 176.102 18.1731 176.342 18.1731C177.061 18.1731 177.66 18.5341 177.66 19.2562L177.54 20.0987Z" fill="white"/>
<path d="M194.791 35.9847V19.256C194.791 19.1356 194.431 18.6542 193.832 18.6542H192.754C192.155 18.6542 191.796 19.1356 191.796 19.7374V20.5799C191.676 20.4595 191.556 20.3392 191.317 20.0985C188.921 17.9321 184.848 17.8118 182.212 19.617C180.415 20.8206 179.337 22.9869 179.217 25.1532C179.217 26.2363 179.097 27.3195 179.217 28.4026C179.337 29.9672 179.696 31.8928 180.655 33.2166C182.571 35.744 186.046 36.7068 189.04 35.744C190.119 35.3829 190.837 34.6608 191.676 33.9387C191.676 35.6236 191.916 37.4289 190.837 38.7527C189.759 40.0766 187.603 40.1969 186.046 40.1969C183.051 40.0766 182.691 38.512 182.092 37.6696C181.972 37.5492 181.493 37.1882 181.373 37.1882H180.056C179.576 37.1882 179.337 37.9103 179.457 38.3917C179.816 39.8359 180.774 41.0394 181.972 41.7615C183.53 42.7243 185.327 42.965 187.124 42.8446C188.921 42.8446 190.718 42.4836 192.155 41.4004C193.353 40.558 193.952 39.1138 194.431 37.7899C194.551 37.5492 194.551 37.3085 194.551 37.0678L194.791 35.9847ZM186.525 33.2166C184.848 33.0963 183.17 32.2538 182.571 30.5689C181.613 28.0416 181.373 24.4311 183.65 22.3851C184.608 21.5427 185.806 21.1816 187.004 21.302C187.962 21.302 188.921 21.4223 189.759 21.9037C190.957 22.6258 191.556 23.9497 191.556 25.2735C191.676 26.3567 191.676 27.6805 191.556 28.7637C191.436 29.9672 190.957 31.1707 190.119 32.0131C189.28 32.8556 187.843 33.337 186.525 33.2166Z" fill="white"/>
<path d="M212.042 18.6543H210.963C210.604 18.6543 210.245 18.895 210.125 19.256L204.854 30.4486L199.583 19.256C199.463 18.895 199.103 18.6543 198.624 18.6543H197.666C196.947 18.6543 196.468 19.3764 196.827 20.0985L203.296 33.9388L200.062 40.9191C199.702 41.5208 200.301 42.0022 201.02 42.0022H202.098C202.458 42.0022 202.937 41.7615 203.057 41.5208L213 20.0985C213.24 19.3764 212.76 18.6543 212.042 18.6543Z" fill="white"/>
<path d="M27.4336 54.9999C17.3706 54.9999 6.70866 49.7045 1.43757 36.5864C1.31777 36.105 1.31777 35.6236 1.55737 35.2625C1.79696 34.9015 2.27615 34.6608 2.75534 34.6608H27.5534C28.392 34.6608 28.991 35.2625 28.991 36.105V41.6411L37.1372 29.0043H15.2143C14.7351 29.0043 14.2559 28.7636 13.8965 28.2822C13.6569 27.8008 13.6569 27.1991 13.8965 26.838L26.2357 6.8599C26.5951 6.25815 27.194 6.01745 27.9128 6.25815C28.5118 6.3785 28.991 6.98025 28.991 7.70235V18.0525H49.5962C45.0439 5.8971 33.7829 1.80519 24.3189 3.12904C13.6569 4.81395 2.87514 13.5995 2.87514 29.6061C2.87514 30.4485 2.27615 31.0503 1.43757 31.0503C0.598988 31.0503 0 30.4485 0 29.6061C0 11.7943 11.9798 2.04589 23.8397 0.240642C34.9809 -1.44426 48.3982 3.7308 52.9505 19.0153C53.0703 19.4967 52.9505 19.9781 52.7109 20.3391C52.4713 20.7002 51.9921 20.9409 51.5129 20.9409H27.5534C26.7148 20.9409 26.1159 20.3391 26.1159 19.4967V12.7571L17.8498 26.1159H39.7728C40.252 26.1159 40.7312 26.3566 41.0905 26.838C41.3301 27.3194 41.3301 27.9212 40.9708 28.2822L28.7514 47.2975C28.392 47.7789 27.793 48.0196 27.0742 47.8993C26.4753 47.6586 25.9961 47.1772 25.9961 46.4551V37.5492H5.0315C11.1412 50.1859 23.2407 53.7964 33.0641 51.5098C42.2885 49.3435 52.7109 41.1597 51.6327 24.9124C51.6327 24.07 52.2317 23.4682 52.9505 23.3479C53.7891 23.3479 54.3881 23.9496 54.5079 24.6717C55.5861 41.5207 44.8043 51.7505 33.6631 54.2778C31.7463 54.7592 29.59 54.9999 27.4336 54.9999Z" fill="white"/>
</g>
<defs>
<clipPath id="clip0_48_531">
<rect width="213" height="55" fill="white"/>
</clipPath>
</defs>
</svg>
