<svg width="178" height="46" viewBox="0 0 178 46" fill="none" xmlns="http://www.w3.org/2000/svg">
<g clip-path="url(#clip0_2_3)">
<path d="M64.3 26C64.7 26 64.9 26.4 64.9 26.8C64.5 28.7 62 30.1 59.4 30.1C59.3 30.1 59.2 30.1 59.2 30.1C55.1 30 52.6 27.3 52.6 22.7C52.6 20.3 53.4 18.2 54.7 16.9C55.9 15.8 57.4 15.3 59.2 15.4C64.5 15.7 65.2 19.1 65.4 22.6C65.4 22.9 65.3 23.2 65.1 23.4C64.9 23.6 64.6 23.8 64.3 23.8H55C55.3 26.7 56.6 27.8 59.2 27.9C61 28 62.2 26.9 62.7 26.2C62.8 26.1 62.9 26.1 63 26.1L64.3 26ZM62.8 21.3C62.6 19.1 61.8 17.7 58.9 17.6C57.7 17.5 56.8 17.8 56.1 18.5C55.4 19.2 55 20 54.9 21.3H62.8Z" fill="#0B825A"/>
<path d="M79.4 28.8L74.4 22.6L79.4 16.6C79.7 16.2 79.4 15.5 78.9 15.5H77.4C77.2 15.5 77 15.6 76.9 15.7L72.9 20.6L69 15.7C68.9 15.5 68.7 15.5 68.5 15.5H67C66.5 15.5 66.2 16.1 66.5 16.6L71.3 22.6L66.2 28.8C65.9 29.2 66.2 29.9 66.7 29.9H68C68.2 29.9 68.4 29.8 68.5 29.7L72.8 24.6L77 29.7C77.1 29.9 77.3 29.9 77.5 29.9H78.9C79.4 29.9 79.7 29.2 79.4 28.8Z" fill="#0B825A"/>
<path d="M89 27.5C87.2 27.5 86.3 27.4 85.8 27C85.3 26.5 85.2 25.9 85.2 25.8V17.8H88.9C89.2 17.8 89.5 17.5 89.5 17.2V16.1C89.5 15.8 89.2 15.5 88.9 15.5H85.3V11C85.3 10.6 85 10.4 84.7 10.4H83.5C83.1 10.4 82.9 10.7 82.9 11V15.6H80.7C80.4 15.6 80.1 15.9 80.1 16.2V17.3C80.1 17.6 80.4 17.9 80.7 17.9H82.9V25.8C82.9 26.1 83 27.8 84.3 28.9C85.3 29.8 86.6 30 88.4 30C88.7 30 89 30 89.2 29.9C89.6 29.9 89.9 29.6 89.9 29.2V28.3C89.7 27.9 89.4 27.5 89 27.5Z" fill="#0B825A"/>
<path d="M136.6 26C137 26 137.3 26.4 137.2 26.8C136.8 28.8 134.2 30.2 131.5 30.2C131.4 30.2 131.3 30.2 131.2 30.2C127 30.1 124.3 27.3 124.3 22.5C124.3 20 125.1 17.9 126.5 16.5C127.7 15.4 129.3 14.8 131.2 14.9C136.7 15.2 137.4 18.8 137.6 22.4C137.6 22.7 137.5 23 137.3 23.3C137.1 23.5 136.8 23.7 136.4 23.7H126.8C127.2 26.7 128.5 27.8 131.1 27.9C133 28 134.2 26.9 134.7 26.2C134.8 26.1 134.9 26 135 26H136.6ZM135.1 21.2C134.9 19 134 17.5 131.1 17.3C129.9 17.2 128.9 17.5 128.2 18.2C127.4 18.9 127.1 19.8 126.9 21.1L135.1 21.2Z" fill="#131718"/>
<path d="M105.9 26C106.3 26 106.6 26.4 106.5 26.8C106.1 28.8 103.5 30.2 100.8 30.2C100.7 30.2 100.6 30.2 100.5 30.2C96.3 30.1 93.6 27.3 93.6 22.5C93.6 20 94.4 17.9 95.8 16.5C97 15.4 98.6 14.8 100.5 14.9C106 15.2 106.7 18.8 106.9 22.4C106.9 22.7 106.8 23 106.6 23.3C106.4 23.5 106.1 23.7 105.7 23.7H96.1C96.5 26.7 97.8 27.8 100.4 27.9C102.3 28 103.5 26.9 104 26.2C104.1 26.1 104.2 26 104.3 26H105.9ZM104.4 21.2C104.2 19 103.3 17.5 100.4 17.3C99.2 17.2 98.2 17.5 97.5 18.2C96.7 18.9 96.4 19.8 96.2 21.1L104.4 21.2Z" fill="#131718"/>
<path d="M119.7 21.2V29.1C119.7 29.6 120.1 30 120.6 30H121.5C122 30 122.3 29.6 122.3 29.2V22.3V21.5C122.3 21.4 122.3 21.2 122.3 20.9V20.6C122.1 17.7 120.9 15.2 116.3 14.9C114.4 14.8 113.2 15.2 112 16.3C111.9 16.4 111.7 16.6 111.6 16.7V16C111.6 15.5 111.3 15 110.8 15H109.8C109.3 15 108.9 15.4 108.9 16V29.1C108.9 29.5 109.3 29.9 109.7 29.9H110.7C111.4 29.9 111.5 29.3 111.5 28.6L111.6 20.6C111.6 20.5 111.6 20.1 111.7 20C111.9 19.3 112.2 18.6 112.7 18.1C113.7 17.2 114.4 17.3 115.6 17.2C117.4 17.2 119.1 18 119.5 20.2L119.7 21.2Z" fill="#131718"/>
<path d="M148.2 16.7C148.2 17.3 147.8 17.5 147.2 17.6C146.8 17.6 146.5 17.6 146.3 17.6C144.7 17.6 144.7 17.4 143.5 18.3C142.9 18.7 142.7 19.4 142.5 20.2C142.5 20.3 142.4 20.7 142.4 20.8L142.3 28.8C142.3 29.5 142.2 30.1 141.5 30.1H140.4C139.8 30.1 139.7 29.6 139.7 29V16C139.7 15.5 140 15 140.6 15H141.6C142.1 15 142.4 15.4 142.4 16V16.7C142.5 16.6 142.6 16.4 142.8 16.3C144 15.2 144.5 15 146.3 15.1C146.4 15.1 147 15.1 147.2 15.1C147.8 15.1 148.3 15.4 148.3 16L148.2 16.7Z" fill="#131718"/>
<path d="M162.6 29.9V16C162.6 15.9 162.3 15.5 161.8 15.5H160.9C160.4 15.5 160.1 15.9 160.1 16.4V17.1C160 17 159.9 16.9 159.7 16.7C157.7 14.9 154.3 14.8 152.1 16.3C150.6 17.3 149.7 19.1 149.6 20.9C149.6 21.8 149.5 22.7 149.6 23.6C149.7 24.9 150 26.5 150.8 27.6C152.4 29.7 155.3 30.5 157.8 29.7C158.7 29.4 159.3 28.8 160 28.2C160 29.6 160.2 31.1 159.3 32.2C158.4 33.3 156.6 33.4 155.3 33.4C152.8 33.3 152.5 32 152 31.3C151.9 31.2 151.5 30.9 151.4 30.9H150.3C149.9 30.9 149.7 31.5 149.8 31.9C150.1 33.1 150.9 34.1 151.9 34.7C153.2 35.5 154.7 35.7 156.2 35.6C157.7 35.6 159.2 35.3 160.4 34.4C161.4 33.7 161.9 32.5 162.3 31.4C162.4 31.2 162.4 31 162.4 30.8L162.6 29.9ZM155.7 27.6C154.3 27.5 152.9 26.8 152.4 25.4C151.6 23.3 151.4 20.3 153.3 18.6C154.1 17.9 155.1 17.6 156.1 17.7C156.9 17.7 157.7 17.8 158.4 18.2C159.4 18.8 159.9 19.9 159.9 21C160 21.9 160 23 159.9 23.9C159.8 24.9 159.4 25.9 158.7 26.6C158 27.3 156.8 27.7 155.7 27.6Z" fill="#131718"/>
<path d="M177 15.5H176.1C175.8 15.5 175.5 15.7 175.4 16L171 25.3L166.6 16C166.5 15.7 166.2 15.5 165.8 15.5H165C164.4 15.5 164 16.1 164.3 16.7L169.7 28.2L167 34C166.7 34.5 167.2 34.9 167.8 34.9H168.7C169 34.9 169.4 34.7 169.5 34.5L177.8 16.7C178 16.1 177.6 15.5 177 15.5Z" fill="black"/>
<path d="M22.9 45.7C14.5 45.7 5.6 41.3 1.2 30.4C1.1 30 1.1 29.6 1.3 29.3C1.5 29 1.9 28.8 2.3 28.8H23C23.7 28.8 24.2 29.3 24.2 30V34.6L31 24.1H12.7C12.3 24.1 11.9 23.9 11.6 23.5C11.4 23.1 11.4 22.6 11.6 22.3L21.9 5.7C22.2 5.2 22.7 5 23.3 5.2C23.8 5.3 24.2 5.8 24.2 6.4V15H41.4C37.6 4.9 28.2 1.5 20.3 2.6C11.4 4 2.4 11.3 2.4 24.6C2.4 25.3 1.9 25.8 1.2 25.8C0.5 25.8 0 25.3 0 24.6C0 9.8 10 1.7 19.9 0.2C29.2 -1.2 40.4 3.1 44.2 15.8C44.3 16.2 44.2 16.6 44 16.9C43.8 17.2 43.4 17.4 43 17.4H23C22.3 17.4 21.8 16.9 21.8 16.2V10.6L14.9 21.7H33.2C33.6 21.7 34 21.9 34.3 22.3C34.5 22.7 34.5 23.2 34.2 23.5L24 39.3C23.7 39.7 23.2 39.9 22.6 39.8C22.1 39.6 21.7 39.2 21.7 38.6V31.2H4.2C9.3 41.7 19.4 44.7 27.6 42.8C35.3 41 44 34.2 43.1 20.7C43.1 20 43.6 19.5 44.2 19.4C44.9 19.4 45.4 19.9 45.5 20.5C46.4 34.5 37.4 43 28.1 45.1C26.5 45.5 24.7 45.7 22.9 45.7Z" fill="#0B825A"/>
</g>
<defs>
<clipPath id="clip0_2_3">
<rect width="177.8" height="45.7" fill="white"/>
</clipPath>
</defs>
</svg>
