<svg width="34" height="43" viewBox="0 0 34 43" fill="none" xmlns="http://www.w3.org/2000/svg">
<path d="M16.9731 0C8.0792 0 0.848145 7.23105 0.848145 16.125C0.848145 28.0172 15.7218 42.1602 16.3601 42.7564C16.5364 42.916 16.7548 43 16.9731 43C17.1915 43 17.4183 42.916 17.5862 42.7564C18.2245 42.1602 33.0981 28.0172 33.0981 16.125C33.0981 7.23105 25.8671 0 16.9731 0ZM16.9731 25.0861C12.0349 25.0861 8.01201 21.0633 8.01201 16.125C8.01201 11.1867 12.0349 7.16387 16.9731 7.16387C21.9114 7.16387 25.9343 11.1867 25.9343 16.125C25.9343 21.0633 21.9114 25.0861 16.9731 25.0861Z" fill="#027D51"/>
</svg>
